<?xml version="1.0" standalone="no"?>
<!DOCTYPE svg PUBLIC "-//W3C//DTD SVG 20010904//EN"
 "http://www.w3.org/TR/2001/REC-SVG-20010904/DTD/svg10.dtd">
<svg version="1.0" xmlns="http://www.w3.org/2000/svg"
 width="314.000000pt" height="200.000000pt" viewBox="0 0 314.000000 200.000000"
 preserveAspectRatio="xMidYMid meet">

<g transform="translate(0.000000,200.000000) scale(0.100000,-0.100000)"
fill="#000000" stroke="none">
<path d="M441 1248 c-5 -13 -21 -58 -37 -100 -16 -43 -32 -78 -36 -78 -3 0
-12 23 -19 50 -9 37 -17 50 -31 50 -21 0 -19 -14 13 -109 10 -29 15 -59 11
-67 -5 -8 -24 38 -50 123 l-43 136 -116 -6 c-63 -3 -116 -7 -118 -9 -6 -6 -9
-607 -3 -613 3 -3 51 -3 107 1 l101 7 1 111 1 111 14 -45 c9 -28 13 -76 12
-125 l-3 -80 -73 -3 c-64 -3 -72 -5 -72 -22 0 -23 18 -24 133 -13 l67 6 0 48
c0 49 0 49 33 49 33 0 33 0 69 108 l36 107 1 -61 c1 -70 -33 -184 -55 -184 -8
0 -14 -7 -14 -15 0 -19 24 -20 218 -16 65 1 72 3 72 21 0 16 5 19 23 15 12 -3
62 -6 112 -8 l90 -2 9 43 9 42 48 0 c27 0 49 -4 49 -10 0 -5 -15 -10 -34 -10
-32 0 -34 -2 -43 -47 l-8 -48 -50 3 c-28 1 -65 5 -82 8 -28 4 -33 2 -33 -14 0
-17 12 -20 105 -28 l105 -9 10 35 c6 19 10 41 10 48 0 18 27 15 38 -5 9 -15
19 -15 103 -5 73 9 95 9 101 -1 5 -9 -10 -14 -57 -21 -67 -9 -71 -11 -56 -35
9 -14 43 -13 175 5 36 5 47 4 42 -4 -8 -13 109 -17 176 -6 32 6 37 10 40 38
l3 31 123 -4 124 -3 -5 224 c-2 131 -9 238 -16 259 -15 47 -49 97 -84 123 -41
30 -134 29 -176 -1 -38 -29 -41 -29 -41 2 l0 25 -97 -6 c-54 -3 -104 -7 -110
-10 -9 -2 -13 -36 -14 -121 -1 -65 -4 -142 -7 -170 l-7 -53 -39 135 c-33 114
-42 135 -59 135 -11 0 -17 -5 -14 -12 25 -68 107 -376 105 -396 -2 -15 -34 82
-77 230 l-74 256 -116 -5 c-64 -2 -121 -6 -128 -8 -6 -2 -21 -35 -32 -73 -30
-99 -25 -112 7 -17 l27 80 110 5 c61 3 113 3 117 0 9 -6 157 -514 160 -549 3
-24 0 -26 -57 -33 -33 -4 -77 -10 -97 -13 -37 -5 -37 -5 -51 42 l-14 48 -56 3
-55 3 -7 -38 c-10 -64 -10 -63 -120 -52 -55 6 -100 11 -102 12 -1 1 23 83 53
182 44 145 55 196 57 263 l3 83 -26 -3 -25 -3 -12 -175 c-6 -96 -19 -195 -27
-220 l-15 -45 0 47 c-1 41 10 236 23 416 l5 62 -125 0 c-120 0 -125 -1 -133
-22z m239 -14 c0 -41 -29 -504 -36 -561 l-5 -53 -92 0 -92 0 2 182 2 183 -52
-153 -52 -153 -34 3 -35 3 -35 130 -36 130 -5 -150 -5 -150 -92 -3 -93 -3 0
295 0 294 83 7 c145 12 133 22 182 -143 24 -79 45 -146 47 -148 3 -2 26 53 53
124 27 70 54 142 62 160 l13 32 110 0 110 0 0 -26z m780 -15 l0 -41 39 35 c69
62 151 59 210 -8 51 -59 63 -117 68 -342 l6 -203 -123 0 -123 0 7 48 c38 276
26 421 -35 405 -41 -11 -52 -63 -57 -269 l-4 -192 -102 -4 c-55 -3 -103 -4
-104 -2 -5 3 17 502 24 561 l5 42 72 4 c40 1 82 4 95 5 20 2 22 -3 22 -39z
m75 -129 c3 -5 -2 -21 -12 -36 -14 -22 -18 -62 -25 -232 -4 -113 -9 -206 -10
-208 -3 -3 -137 -6 -190 -5 -16 1 -28 5 -28 10 0 4 41 11 92 15 51 4 94 8 95
10 1 1 6 95 11 209 7 179 11 209 27 227 20 22 31 25 40 10z"/>
<path d="M2210 1247 c-76 -29 -127 -74 -150 -134 l-18 -47 5 91 6 91 -114 -5
c-63 -3 -118 -6 -124 -7 -5 -1 -8 -25 -6 -52 l3 -49 -23 20 c-22 20 -22 20
-14 0 29 -73 33 -107 40 -312 l7 -223 -101 0 c-94 0 -101 -1 -101 -20 0 -19 7
-20 126 -20 l126 0 -6 25 c-6 25 -6 25 61 25 38 0 73 4 80 8 10 6 28 198 34
357 0 11 7 0 14 -25 11 -36 12 -64 4 -140 -5 -52 -10 -123 -10 -157 l0 -63
-65 0 c-57 0 -64 -2 -64 -20 0 -19 7 -20 91 -20 l91 0 -4 38 -3 38 58 -18
c138 -43 284 0 336 99 l20 38 1 -43 c0 -36 -5 -49 -30 -72 -60 -56 -191 -77
-293 -46 -66 20 -58 3 11 -24 110 -43 229 -37 306 15 33 22 47 25 126 25 l90
0 0 95 0 95 46 0 c50 0 59 -22 11 -28 -26 -3 -26 -4 -29 -95 l-3 -92 -72 -3
c-56 -2 -73 -6 -73 -17 0 -12 18 -15 94 -15 109 0 104 -5 108 115 l2 70 3 -62
4 -63 32 4 c18 2 70 4 116 5 l84 1 -7 302 c-4 166 -9 305 -12 310 -3 4 -50 8
-105 8 l-99 0 0 -45 c0 -41 -2 -45 -25 -45 -24 0 -25 -2 -25 -74 0 -102 -10
-166 -26 -166 -10 0 -12 32 -7 160 l6 160 -96 2 c-54 0 -103 1 -109 2 -9 1
-17 -34 -27 -109 -8 -60 -15 -111 -16 -113 -2 -2 -32 2 -68 9 -50 9 -75 9
-111 0 -52 -13 -74 -7 -55 15 14 17 106 19 162 3 22 -6 40 -9 42 -7 2 2 6 44
10 93 l7 91 -28 13 c-42 19 -201 25 -244 8z m210 -10 l45 -12 -3 -75 c-2 -41
-7 -78 -11 -82 -4 -4 -34 -3 -67 3 -68 12 -122 3 -138 -25 -18 -28 16 -45 88
-43 72 1 118 -19 146 -66 39 -63 19 -200 -36 -249 -71 -63 -201 -79 -318 -39
l-68 23 7 77 c4 42 9 78 11 80 2 2 15 -1 28 -7 41 -18 139 -32 170 -24 37 10
56 36 39 53 -7 7 -43 16 -79 21 -122 14 -174 63 -174 162 0 92 54 167 146 200
47 18 152 19 214 3z m-398 -297 c-8 -157 -15 -286 -16 -286 0 -1 -40 -4 -87
-8 l-87 -7 -7 286 c-4 164 -4 290 1 295 10 10 195 18 205 10 3 -3 -1 -133 -9
-290z m1000 5 c4 -159 5 -291 2 -294 -3 -3 -50 -7 -104 -9 l-100 -4 0 91 0 91
-54 0 -53 0 -7 -46 c-3 -26 -6 -69 -6 -95 l0 -49 -90 0 -90 0 0 140 c0 150 0
149 -59 207 -25 24 -22 27 26 17 26 -5 29 -9 25 -35 -3 -17 0 -29 7 -29 8 0
11 46 11 150 l0 150 100 0 100 0 -7 -160 -6 -160 56 0 57 0 0 165 0 166 93 -3
92 -3 7 -290z m-812 -82 c62 -5 90 -12 90 -21 0 -5 -25 -5 -56 -2 -56 6 -56 6
-34 -12 l22 -18 -29 0 c-47 0 -93 20 -93 39 0 25 11 33 35 25 11 -3 40 -8 65
-11z"/>
<path d="M3067 891 l6 -278 -81 -7 c-74 -7 -82 -9 -82 -28 0 -19 4 -20 46 -14
26 3 73 6 105 6 l59 0 0 88 c0 49 -3 184 -7 300 l-6 212 -23 0 -23 0 6 -279z"/>
<path d="M931 973 c-7 -38 -15 -78 -18 -90 -5 -21 -2 -23 37 -23 35 0 41 3 36
18 -3 9 -10 46 -17 82 -6 36 -15 68 -19 73 -3 4 -12 -23 -19 -60z m32 -45 c5
-41 -1 -58 -20 -58 -12 0 -14 8 -9 38 3 20 6 43 6 50 0 26 18 2 23 -30z"/>
<path d="M690 606 c0 -13 -59 -26 -121 -26 -23 0 -29 -5 -29 -21 0 -21 3 -22
61 -15 34 3 79 6 100 6 38 0 39 1 39 35 0 31 -3 35 -25 35 -14 0 -25 -6 -25
-14z"/>
</g>
</svg>
